<mxfile host="Electron" modified="2024-03-15T15:32:49.540Z" agent="Mozilla/5.0 (Windows NT 10.0; Win64; x64) AppleWebKit/537.36 (KHTML, like Gecko) draw.io/23.1.5 Chrome/120.0.6099.109 Electron/28.1.0 Safari/537.36" etag="qKvIYpnNfb64MkNpPQwB" version="23.1.5" type="device">
  <diagram name="Pagina-1" id="HmAXb_ONBJkOorGH9aTu">
    <mxGraphModel dx="1206" dy="760" grid="1" gridSize="10" guides="1" tooltips="1" connect="1" arrows="1" fold="1" page="1" pageScale="1" pageWidth="827" pageHeight="1169" math="0" shadow="0">
      <root>
        <mxCell id="0" />
        <mxCell id="1" parent="0" />
        <mxCell id="xV2yaK1HWpeZm-8esMcd-27" style="edgeStyle=orthogonalEdgeStyle;rounded=0;orthogonalLoop=1;jettySize=auto;html=1;entryX=0;entryY=0.5;entryDx=0;entryDy=0;" edge="1" parent="1" source="xV2yaK1HWpeZm-8esMcd-1" target="xV2yaK1HWpeZm-8esMcd-20">
          <mxGeometry relative="1" as="geometry" />
        </mxCell>
        <mxCell id="xV2yaK1HWpeZm-8esMcd-28" style="edgeStyle=orthogonalEdgeStyle;rounded=0;orthogonalLoop=1;jettySize=auto;html=1;entryX=0;entryY=0.5;entryDx=0;entryDy=0;" edge="1" parent="1" source="xV2yaK1HWpeZm-8esMcd-1" target="xV2yaK1HWpeZm-8esMcd-22">
          <mxGeometry relative="1" as="geometry" />
        </mxCell>
        <mxCell id="xV2yaK1HWpeZm-8esMcd-29" style="edgeStyle=orthogonalEdgeStyle;rounded=0;orthogonalLoop=1;jettySize=auto;html=1;entryX=0;entryY=0.5;entryDx=0;entryDy=0;" edge="1" parent="1" source="xV2yaK1HWpeZm-8esMcd-1" target="xV2yaK1HWpeZm-8esMcd-24">
          <mxGeometry relative="1" as="geometry" />
        </mxCell>
        <mxCell id="xV2yaK1HWpeZm-8esMcd-110" style="edgeStyle=orthogonalEdgeStyle;rounded=0;orthogonalLoop=1;jettySize=auto;html=1;entryX=1;entryY=0.5;entryDx=0;entryDy=0;" edge="1" parent="1" source="xV2yaK1HWpeZm-8esMcd-1" target="xV2yaK1HWpeZm-8esMcd-108">
          <mxGeometry relative="1" as="geometry" />
        </mxCell>
        <mxCell id="xV2yaK1HWpeZm-8esMcd-120" style="edgeStyle=orthogonalEdgeStyle;rounded=0;orthogonalLoop=1;jettySize=auto;html=1;entryX=0;entryY=0.5;entryDx=0;entryDy=0;endArrow=doubleBlock;endFill=1;" edge="1" parent="1" source="xV2yaK1HWpeZm-8esMcd-1" target="xV2yaK1HWpeZm-8esMcd-118">
          <mxGeometry relative="1" as="geometry" />
        </mxCell>
        <mxCell id="xV2yaK1HWpeZm-8esMcd-1" value="Theater" style="rounded=0;whiteSpace=wrap;html=1;" vertex="1" parent="1">
          <mxGeometry x="800" y="870" width="120" height="60" as="geometry" />
        </mxCell>
        <mxCell id="xV2yaK1HWpeZm-8esMcd-12" style="edgeStyle=orthogonalEdgeStyle;rounded=0;orthogonalLoop=1;jettySize=auto;html=1;entryX=0;entryY=0.5;entryDx=0;entryDy=0;" edge="1" parent="1" source="xV2yaK1HWpeZm-8esMcd-2" target="xV2yaK1HWpeZm-8esMcd-10">
          <mxGeometry relative="1" as="geometry" />
        </mxCell>
        <mxCell id="xV2yaK1HWpeZm-8esMcd-17" style="edgeStyle=orthogonalEdgeStyle;rounded=0;orthogonalLoop=1;jettySize=auto;html=1;entryX=0;entryY=0.5;entryDx=0;entryDy=0;" edge="1" parent="1" source="xV2yaK1HWpeZm-8esMcd-2" target="xV2yaK1HWpeZm-8esMcd-13">
          <mxGeometry relative="1" as="geometry" />
        </mxCell>
        <mxCell id="xV2yaK1HWpeZm-8esMcd-18" style="edgeStyle=orthogonalEdgeStyle;rounded=0;orthogonalLoop=1;jettySize=auto;html=1;entryX=0;entryY=0.5;entryDx=0;entryDy=0;" edge="1" parent="1" source="xV2yaK1HWpeZm-8esMcd-2" target="xV2yaK1HWpeZm-8esMcd-15">
          <mxGeometry relative="1" as="geometry" />
        </mxCell>
        <mxCell id="xV2yaK1HWpeZm-8esMcd-109" style="edgeStyle=orthogonalEdgeStyle;rounded=0;orthogonalLoop=1;jettySize=auto;html=1;entryX=0;entryY=0.5;entryDx=0;entryDy=0;endArrow=doubleBlock;endFill=1;" edge="1" parent="1" source="xV2yaK1HWpeZm-8esMcd-2" target="xV2yaK1HWpeZm-8esMcd-108">
          <mxGeometry relative="1" as="geometry" />
        </mxCell>
        <mxCell id="xV2yaK1HWpeZm-8esMcd-131" style="edgeStyle=orthogonalEdgeStyle;rounded=0;orthogonalLoop=1;jettySize=auto;html=1;entryX=1;entryY=0.5;entryDx=0;entryDy=0;endArrow=doubleBlock;endFill=1;" edge="1" parent="1" source="xV2yaK1HWpeZm-8esMcd-2" target="xV2yaK1HWpeZm-8esMcd-129">
          <mxGeometry relative="1" as="geometry" />
        </mxCell>
        <mxCell id="xV2yaK1HWpeZm-8esMcd-2" value="Cinema" style="rounded=0;whiteSpace=wrap;html=1;" vertex="1" parent="1">
          <mxGeometry x="446" y="870" width="120" height="60" as="geometry" />
        </mxCell>
        <mxCell id="xV2yaK1HWpeZm-8esMcd-41" style="edgeStyle=orthogonalEdgeStyle;rounded=0;orthogonalLoop=1;jettySize=auto;html=1;entryX=0;entryY=0.5;entryDx=0;entryDy=0;" edge="1" parent="1" source="xV2yaK1HWpeZm-8esMcd-3" target="xV2yaK1HWpeZm-8esMcd-31">
          <mxGeometry relative="1" as="geometry" />
        </mxCell>
        <mxCell id="xV2yaK1HWpeZm-8esMcd-42" style="edgeStyle=orthogonalEdgeStyle;rounded=0;orthogonalLoop=1;jettySize=auto;html=1;entryX=0;entryY=0.5;entryDx=0;entryDy=0;" edge="1" parent="1" source="xV2yaK1HWpeZm-8esMcd-3" target="xV2yaK1HWpeZm-8esMcd-33">
          <mxGeometry relative="1" as="geometry" />
        </mxCell>
        <mxCell id="xV2yaK1HWpeZm-8esMcd-44" style="edgeStyle=orthogonalEdgeStyle;rounded=0;orthogonalLoop=1;jettySize=auto;html=1;entryX=0;entryY=0.5;entryDx=0;entryDy=0;" edge="1" parent="1" source="xV2yaK1HWpeZm-8esMcd-3" target="xV2yaK1HWpeZm-8esMcd-35">
          <mxGeometry relative="1" as="geometry" />
        </mxCell>
        <mxCell id="xV2yaK1HWpeZm-8esMcd-45" style="edgeStyle=orthogonalEdgeStyle;rounded=0;orthogonalLoop=1;jettySize=auto;html=1;entryX=0;entryY=0.5;entryDx=0;entryDy=0;" edge="1" parent="1" source="xV2yaK1HWpeZm-8esMcd-3" target="xV2yaK1HWpeZm-8esMcd-37">
          <mxGeometry relative="1" as="geometry" />
        </mxCell>
        <mxCell id="xV2yaK1HWpeZm-8esMcd-46" style="edgeStyle=orthogonalEdgeStyle;rounded=0;orthogonalLoop=1;jettySize=auto;html=1;entryX=0;entryY=0.5;entryDx=0;entryDy=0;" edge="1" parent="1" source="xV2yaK1HWpeZm-8esMcd-3" target="xV2yaK1HWpeZm-8esMcd-39">
          <mxGeometry relative="1" as="geometry" />
        </mxCell>
        <mxCell id="xV2yaK1HWpeZm-8esMcd-126" style="edgeStyle=orthogonalEdgeStyle;rounded=0;orthogonalLoop=1;jettySize=auto;html=1;entryX=0.5;entryY=1;entryDx=0;entryDy=0;endArrow=doubleBlock;endFill=1;" edge="1" parent="1" source="xV2yaK1HWpeZm-8esMcd-3" target="xV2yaK1HWpeZm-8esMcd-123">
          <mxGeometry relative="1" as="geometry" />
        </mxCell>
        <mxCell id="xV2yaK1HWpeZm-8esMcd-146" style="edgeStyle=orthogonalEdgeStyle;rounded=0;orthogonalLoop=1;jettySize=auto;html=1;endArrow=doubleBlock;endFill=1;" edge="1" parent="1" source="xV2yaK1HWpeZm-8esMcd-3">
          <mxGeometry relative="1" as="geometry">
            <mxPoint x="1609.9999999999995" y="1350" as="targetPoint" />
          </mxGeometry>
        </mxCell>
        <mxCell id="xV2yaK1HWpeZm-8esMcd-3" value="Movie" style="rounded=0;whiteSpace=wrap;html=1;" vertex="1" parent="1">
          <mxGeometry x="1185" y="1320" width="120" height="60" as="geometry" />
        </mxCell>
        <mxCell id="xV2yaK1HWpeZm-8esMcd-53" style="edgeStyle=orthogonalEdgeStyle;rounded=0;orthogonalLoop=1;jettySize=auto;html=1;entryX=0;entryY=0.5;entryDx=0;entryDy=0;" edge="1" parent="1" source="xV2yaK1HWpeZm-8esMcd-4" target="xV2yaK1HWpeZm-8esMcd-47">
          <mxGeometry relative="1" as="geometry" />
        </mxCell>
        <mxCell id="xV2yaK1HWpeZm-8esMcd-54" style="edgeStyle=orthogonalEdgeStyle;rounded=0;orthogonalLoop=1;jettySize=auto;html=1;entryX=0;entryY=0.5;entryDx=0;entryDy=0;" edge="1" parent="1" source="xV2yaK1HWpeZm-8esMcd-4" target="xV2yaK1HWpeZm-8esMcd-49">
          <mxGeometry relative="1" as="geometry" />
        </mxCell>
        <mxCell id="xV2yaK1HWpeZm-8esMcd-121" style="edgeStyle=orthogonalEdgeStyle;rounded=0;orthogonalLoop=1;jettySize=auto;html=1;entryX=1;entryY=0.5;entryDx=0;entryDy=0;" edge="1" parent="1" source="xV2yaK1HWpeZm-8esMcd-4" target="xV2yaK1HWpeZm-8esMcd-118">
          <mxGeometry relative="1" as="geometry" />
        </mxCell>
        <mxCell id="xV2yaK1HWpeZm-8esMcd-127" style="edgeStyle=orthogonalEdgeStyle;rounded=0;orthogonalLoop=1;jettySize=auto;html=1;entryX=0.5;entryY=0;entryDx=0;entryDy=0;" edge="1" parent="1" source="xV2yaK1HWpeZm-8esMcd-4" target="xV2yaK1HWpeZm-8esMcd-123">
          <mxGeometry relative="1" as="geometry" />
        </mxCell>
        <mxCell id="xV2yaK1HWpeZm-8esMcd-137" style="edgeStyle=orthogonalEdgeStyle;rounded=0;orthogonalLoop=1;jettySize=auto;html=1;entryX=0;entryY=0.5;entryDx=0;entryDy=0;endArrow=doubleBlock;endFill=1;" edge="1" parent="1" source="xV2yaK1HWpeZm-8esMcd-4" target="xV2yaK1HWpeZm-8esMcd-136">
          <mxGeometry relative="1" as="geometry" />
        </mxCell>
        <mxCell id="xV2yaK1HWpeZm-8esMcd-4" value="Showtime" style="rounded=0;whiteSpace=wrap;html=1;" vertex="1" parent="1">
          <mxGeometry x="1190" y="870" width="120" height="60" as="geometry" />
        </mxCell>
        <mxCell id="xV2yaK1HWpeZm-8esMcd-74" style="edgeStyle=orthogonalEdgeStyle;rounded=0;orthogonalLoop=1;jettySize=auto;html=1;entryX=0;entryY=0.5;entryDx=0;entryDy=0;" edge="1" parent="1" source="xV2yaK1HWpeZm-8esMcd-5" target="xV2yaK1HWpeZm-8esMcd-68">
          <mxGeometry relative="1" as="geometry" />
        </mxCell>
        <mxCell id="xV2yaK1HWpeZm-8esMcd-75" style="edgeStyle=orthogonalEdgeStyle;rounded=0;orthogonalLoop=1;jettySize=auto;html=1;entryX=0;entryY=0.5;entryDx=0;entryDy=0;" edge="1" parent="1" source="xV2yaK1HWpeZm-8esMcd-5" target="xV2yaK1HWpeZm-8esMcd-70">
          <mxGeometry relative="1" as="geometry" />
        </mxCell>
        <mxCell id="xV2yaK1HWpeZm-8esMcd-138" style="edgeStyle=orthogonalEdgeStyle;rounded=0;orthogonalLoop=1;jettySize=auto;html=1;entryX=1;entryY=0.5;entryDx=0;entryDy=0;" edge="1" parent="1" source="xV2yaK1HWpeZm-8esMcd-5" target="xV2yaK1HWpeZm-8esMcd-136">
          <mxGeometry relative="1" as="geometry" />
        </mxCell>
        <mxCell id="xV2yaK1HWpeZm-8esMcd-141" style="edgeStyle=orthogonalEdgeStyle;rounded=0;orthogonalLoop=1;jettySize=auto;html=1;entryX=0;entryY=0.5;entryDx=0;entryDy=0;endArrow=doubleBlock;endFill=1;" edge="1" parent="1" source="xV2yaK1HWpeZm-8esMcd-5" target="xV2yaK1HWpeZm-8esMcd-135">
          <mxGeometry relative="1" as="geometry" />
        </mxCell>
        <mxCell id="xV2yaK1HWpeZm-8esMcd-5" value="Ticket" style="rounded=0;whiteSpace=wrap;html=1;" vertex="1" parent="1">
          <mxGeometry x="1530" y="870.5" width="120" height="60" as="geometry" />
        </mxCell>
        <mxCell id="xV2yaK1HWpeZm-8esMcd-64" style="edgeStyle=orthogonalEdgeStyle;rounded=0;orthogonalLoop=1;jettySize=auto;html=1;entryX=0;entryY=0.5;entryDx=0;entryDy=0;" edge="1" parent="1" source="xV2yaK1HWpeZm-8esMcd-6" target="xV2yaK1HWpeZm-8esMcd-56">
          <mxGeometry relative="1" as="geometry" />
        </mxCell>
        <mxCell id="xV2yaK1HWpeZm-8esMcd-65" style="edgeStyle=orthogonalEdgeStyle;rounded=0;orthogonalLoop=1;jettySize=auto;html=1;entryX=0;entryY=0.5;entryDx=0;entryDy=0;" edge="1" parent="1" source="xV2yaK1HWpeZm-8esMcd-6" target="xV2yaK1HWpeZm-8esMcd-58">
          <mxGeometry relative="1" as="geometry" />
        </mxCell>
        <mxCell id="xV2yaK1HWpeZm-8esMcd-66" style="edgeStyle=orthogonalEdgeStyle;rounded=0;orthogonalLoop=1;jettySize=auto;html=1;entryX=0;entryY=0.5;entryDx=0;entryDy=0;" edge="1" parent="1" source="xV2yaK1HWpeZm-8esMcd-6" target="xV2yaK1HWpeZm-8esMcd-60">
          <mxGeometry relative="1" as="geometry" />
        </mxCell>
        <mxCell id="xV2yaK1HWpeZm-8esMcd-67" style="edgeStyle=orthogonalEdgeStyle;rounded=0;orthogonalLoop=1;jettySize=auto;html=1;entryX=0;entryY=0.5;entryDx=0;entryDy=0;" edge="1" parent="1" source="xV2yaK1HWpeZm-8esMcd-6" target="xV2yaK1HWpeZm-8esMcd-62">
          <mxGeometry relative="1" as="geometry" />
        </mxCell>
        <mxCell id="xV2yaK1HWpeZm-8esMcd-140" style="edgeStyle=orthogonalEdgeStyle;rounded=0;orthogonalLoop=1;jettySize=auto;html=1;entryX=1;entryY=0.5;entryDx=0;entryDy=0;" edge="1" parent="1" source="xV2yaK1HWpeZm-8esMcd-6" target="xV2yaK1HWpeZm-8esMcd-135">
          <mxGeometry relative="1" as="geometry" />
        </mxCell>
        <mxCell id="xV2yaK1HWpeZm-8esMcd-143" style="edgeStyle=orthogonalEdgeStyle;rounded=0;orthogonalLoop=1;jettySize=auto;html=1;entryX=0.5;entryY=0;entryDx=0;entryDy=0;endArrow=doubleBlock;endFill=1;" edge="1" parent="1" source="xV2yaK1HWpeZm-8esMcd-6" target="xV2yaK1HWpeZm-8esMcd-134">
          <mxGeometry relative="1" as="geometry" />
        </mxCell>
        <mxCell id="xV2yaK1HWpeZm-8esMcd-6" value="Customer" style="rounded=0;whiteSpace=wrap;html=1;" vertex="1" parent="1">
          <mxGeometry x="1950" y="870" width="120" height="60" as="geometry" />
        </mxCell>
        <mxCell id="xV2yaK1HWpeZm-8esMcd-82" style="edgeStyle=orthogonalEdgeStyle;rounded=0;orthogonalLoop=1;jettySize=auto;html=1;entryX=0;entryY=0.5;entryDx=0;entryDy=0;" edge="1" parent="1" source="xV2yaK1HWpeZm-8esMcd-7" target="xV2yaK1HWpeZm-8esMcd-76">
          <mxGeometry relative="1" as="geometry" />
        </mxCell>
        <mxCell id="xV2yaK1HWpeZm-8esMcd-83" style="edgeStyle=orthogonalEdgeStyle;rounded=0;orthogonalLoop=1;jettySize=auto;html=1;entryX=0;entryY=0.5;entryDx=0;entryDy=0;" edge="1" parent="1" source="xV2yaK1HWpeZm-8esMcd-7" target="xV2yaK1HWpeZm-8esMcd-78">
          <mxGeometry relative="1" as="geometry" />
        </mxCell>
        <mxCell id="xV2yaK1HWpeZm-8esMcd-84" style="edgeStyle=orthogonalEdgeStyle;rounded=0;orthogonalLoop=1;jettySize=auto;html=1;entryX=0;entryY=0.5;entryDx=0;entryDy=0;" edge="1" parent="1" source="xV2yaK1HWpeZm-8esMcd-7" target="xV2yaK1HWpeZm-8esMcd-80">
          <mxGeometry relative="1" as="geometry" />
        </mxCell>
        <mxCell id="xV2yaK1HWpeZm-8esMcd-144" style="edgeStyle=orthogonalEdgeStyle;rounded=0;orthogonalLoop=1;jettySize=auto;html=1;entryX=0.5;entryY=1;entryDx=0;entryDy=0;" edge="1" parent="1" source="xV2yaK1HWpeZm-8esMcd-7" target="xV2yaK1HWpeZm-8esMcd-134">
          <mxGeometry relative="1" as="geometry" />
        </mxCell>
        <mxCell id="xV2yaK1HWpeZm-8esMcd-147" style="edgeStyle=orthogonalEdgeStyle;rounded=0;orthogonalLoop=1;jettySize=auto;html=1;" edge="1" parent="1" source="xV2yaK1HWpeZm-8esMcd-7">
          <mxGeometry relative="1" as="geometry">
            <mxPoint x="1689.9999999999995" y="1350" as="targetPoint" />
          </mxGeometry>
        </mxCell>
        <mxCell id="xV2yaK1HWpeZm-8esMcd-7" value="Review" style="rounded=0;whiteSpace=wrap;html=1;" vertex="1" parent="1">
          <mxGeometry x="1950" y="1320" width="120" height="60" as="geometry" />
        </mxCell>
        <mxCell id="xV2yaK1HWpeZm-8esMcd-93" style="edgeStyle=orthogonalEdgeStyle;rounded=0;orthogonalLoop=1;jettySize=auto;html=1;entryX=0;entryY=0.5;entryDx=0;entryDy=0;" edge="1" parent="1" source="xV2yaK1HWpeZm-8esMcd-8" target="xV2yaK1HWpeZm-8esMcd-85">
          <mxGeometry relative="1" as="geometry" />
        </mxCell>
        <mxCell id="xV2yaK1HWpeZm-8esMcd-94" style="edgeStyle=orthogonalEdgeStyle;rounded=0;orthogonalLoop=1;jettySize=auto;html=1;entryX=0;entryY=0.5;entryDx=0;entryDy=0;" edge="1" parent="1" source="xV2yaK1HWpeZm-8esMcd-8" target="xV2yaK1HWpeZm-8esMcd-87">
          <mxGeometry relative="1" as="geometry" />
        </mxCell>
        <mxCell id="xV2yaK1HWpeZm-8esMcd-95" style="edgeStyle=orthogonalEdgeStyle;rounded=0;orthogonalLoop=1;jettySize=auto;html=1;entryX=0;entryY=0.5;entryDx=0;entryDy=0;" edge="1" parent="1" source="xV2yaK1HWpeZm-8esMcd-8" target="xV2yaK1HWpeZm-8esMcd-89">
          <mxGeometry relative="1" as="geometry" />
        </mxCell>
        <mxCell id="xV2yaK1HWpeZm-8esMcd-96" style="edgeStyle=orthogonalEdgeStyle;rounded=0;orthogonalLoop=1;jettySize=auto;html=1;entryX=0;entryY=0.5;entryDx=0;entryDy=0;" edge="1" parent="1" source="xV2yaK1HWpeZm-8esMcd-8" target="xV2yaK1HWpeZm-8esMcd-91">
          <mxGeometry relative="1" as="geometry" />
        </mxCell>
        <mxCell id="xV2yaK1HWpeZm-8esMcd-130" style="edgeStyle=orthogonalEdgeStyle;rounded=0;orthogonalLoop=1;jettySize=auto;html=1;entryX=0;entryY=0.5;entryDx=0;entryDy=0;" edge="1" parent="1" source="xV2yaK1HWpeZm-8esMcd-8" target="xV2yaK1HWpeZm-8esMcd-129">
          <mxGeometry relative="1" as="geometry" />
        </mxCell>
        <mxCell id="xV2yaK1HWpeZm-8esMcd-8" value="Employee" style="rounded=0;whiteSpace=wrap;html=1;" vertex="1" parent="1">
          <mxGeometry x="90" y="870" width="120" height="60" as="geometry" />
        </mxCell>
        <mxCell id="xV2yaK1HWpeZm-8esMcd-10" value="" style="ellipse;whiteSpace=wrap;html=1;aspect=fixed;" vertex="1" parent="1">
          <mxGeometry x="536" y="950" width="30" height="30" as="geometry" />
        </mxCell>
        <mxCell id="xV2yaK1HWpeZm-8esMcd-11" value="Nome" style="text;html=1;align=center;verticalAlign=middle;whiteSpace=wrap;rounded=0;" vertex="1" parent="1">
          <mxGeometry x="566" y="950" width="60" height="30" as="geometry" />
        </mxCell>
        <mxCell id="xV2yaK1HWpeZm-8esMcd-13" value="" style="ellipse;whiteSpace=wrap;html=1;aspect=fixed;" vertex="1" parent="1">
          <mxGeometry x="536" y="990" width="30" height="30" as="geometry" />
        </mxCell>
        <mxCell id="xV2yaK1HWpeZm-8esMcd-14" value="Indirizzo" style="text;html=1;align=center;verticalAlign=middle;whiteSpace=wrap;rounded=0;" vertex="1" parent="1">
          <mxGeometry x="566" y="990" width="60" height="30" as="geometry" />
        </mxCell>
        <mxCell id="xV2yaK1HWpeZm-8esMcd-15" value="" style="ellipse;whiteSpace=wrap;html=1;aspect=fixed;" vertex="1" parent="1">
          <mxGeometry x="536" y="1030" width="30" height="30" as="geometry" />
        </mxCell>
        <mxCell id="xV2yaK1HWpeZm-8esMcd-16" value="Phone" style="text;html=1;align=center;verticalAlign=middle;whiteSpace=wrap;rounded=0;" vertex="1" parent="1">
          <mxGeometry x="566" y="1030" width="60" height="30" as="geometry" />
        </mxCell>
        <mxCell id="xV2yaK1HWpeZm-8esMcd-19" value="" style="endArrow=none;html=1;rounded=0;" edge="1" parent="1">
          <mxGeometry width="50" height="50" relative="1" as="geometry">
            <mxPoint x="516" y="1065" as="sourcePoint" />
            <mxPoint x="516" y="1025" as="targetPoint" />
          </mxGeometry>
        </mxCell>
        <mxCell id="xV2yaK1HWpeZm-8esMcd-20" value="" style="ellipse;whiteSpace=wrap;html=1;aspect=fixed;" vertex="1" parent="1">
          <mxGeometry x="900" y="950" width="30" height="30" as="geometry" />
        </mxCell>
        <mxCell id="xV2yaK1HWpeZm-8esMcd-21" value="Nome" style="text;html=1;align=center;verticalAlign=middle;whiteSpace=wrap;rounded=0;" vertex="1" parent="1">
          <mxGeometry x="920" y="950" width="60" height="30" as="geometry" />
        </mxCell>
        <mxCell id="xV2yaK1HWpeZm-8esMcd-22" value="" style="ellipse;whiteSpace=wrap;html=1;aspect=fixed;" vertex="1" parent="1">
          <mxGeometry x="900" y="990" width="30" height="30" as="geometry" />
        </mxCell>
        <mxCell id="xV2yaK1HWpeZm-8esMcd-23" value="Capacity" style="text;html=1;align=center;verticalAlign=middle;whiteSpace=wrap;rounded=0;" vertex="1" parent="1">
          <mxGeometry x="930" y="990" width="60" height="30" as="geometry" />
        </mxCell>
        <mxCell id="xV2yaK1HWpeZm-8esMcd-24" value="" style="ellipse;whiteSpace=wrap;html=1;aspect=fixed;" vertex="1" parent="1">
          <mxGeometry x="900" y="1030" width="30" height="30" as="geometry" />
        </mxCell>
        <mxCell id="xV2yaK1HWpeZm-8esMcd-25" value="ScreenType" style="text;html=1;align=center;verticalAlign=middle;whiteSpace=wrap;rounded=0;" vertex="1" parent="1">
          <mxGeometry x="940" y="1030" width="60" height="30" as="geometry" />
        </mxCell>
        <mxCell id="xV2yaK1HWpeZm-8esMcd-30" value="" style="endArrow=none;html=1;rounded=0;" edge="1" parent="1">
          <mxGeometry width="50" height="50" relative="1" as="geometry">
            <mxPoint x="880" y="1065" as="sourcePoint" />
            <mxPoint x="880" y="1025" as="targetPoint" />
          </mxGeometry>
        </mxCell>
        <mxCell id="xV2yaK1HWpeZm-8esMcd-31" value="" style="ellipse;whiteSpace=wrap;html=1;aspect=fixed;" vertex="1" parent="1">
          <mxGeometry x="1275" y="1400" width="30" height="30" as="geometry" />
        </mxCell>
        <mxCell id="xV2yaK1HWpeZm-8esMcd-32" value="Title" style="text;html=1;align=center;verticalAlign=middle;whiteSpace=wrap;rounded=0;" vertex="1" parent="1">
          <mxGeometry x="1295" y="1400" width="60" height="30" as="geometry" />
        </mxCell>
        <mxCell id="xV2yaK1HWpeZm-8esMcd-33" value="" style="ellipse;whiteSpace=wrap;html=1;aspect=fixed;" vertex="1" parent="1">
          <mxGeometry x="1275" y="1440" width="30" height="30" as="geometry" />
        </mxCell>
        <mxCell id="xV2yaK1HWpeZm-8esMcd-34" value="Director" style="text;html=1;align=center;verticalAlign=middle;whiteSpace=wrap;rounded=0;" vertex="1" parent="1">
          <mxGeometry x="1305" y="1440" width="60" height="30" as="geometry" />
        </mxCell>
        <mxCell id="xV2yaK1HWpeZm-8esMcd-35" value="" style="ellipse;whiteSpace=wrap;html=1;aspect=fixed;" vertex="1" parent="1">
          <mxGeometry x="1275" y="1480" width="30" height="30" as="geometry" />
        </mxCell>
        <mxCell id="xV2yaK1HWpeZm-8esMcd-36" value="ReleaseDate" style="text;html=1;align=center;verticalAlign=middle;whiteSpace=wrap;rounded=0;" vertex="1" parent="1">
          <mxGeometry x="1315" y="1480" width="60" height="30" as="geometry" />
        </mxCell>
        <mxCell id="xV2yaK1HWpeZm-8esMcd-37" value="" style="ellipse;whiteSpace=wrap;html=1;aspect=fixed;" vertex="1" parent="1">
          <mxGeometry x="1275" y="1520" width="30" height="30" as="geometry" />
        </mxCell>
        <mxCell id="xV2yaK1HWpeZm-8esMcd-38" value="DurationMinutes" style="text;html=1;align=center;verticalAlign=middle;whiteSpace=wrap;rounded=0;" vertex="1" parent="1">
          <mxGeometry x="1325" y="1520" width="60" height="30" as="geometry" />
        </mxCell>
        <mxCell id="xV2yaK1HWpeZm-8esMcd-39" value="" style="ellipse;whiteSpace=wrap;html=1;aspect=fixed;" vertex="1" parent="1">
          <mxGeometry x="1275" y="1560" width="30" height="30" as="geometry" />
        </mxCell>
        <mxCell id="xV2yaK1HWpeZm-8esMcd-40" value="Rating" style="text;html=1;align=center;verticalAlign=middle;whiteSpace=wrap;rounded=0;" vertex="1" parent="1">
          <mxGeometry x="1305" y="1560" width="60" height="30" as="geometry" />
        </mxCell>
        <mxCell id="xV2yaK1HWpeZm-8esMcd-47" value="" style="ellipse;whiteSpace=wrap;html=1;aspect=fixed;" vertex="1" parent="1">
          <mxGeometry x="1285" y="950" width="30" height="30" as="geometry" />
        </mxCell>
        <mxCell id="xV2yaK1HWpeZm-8esMcd-49" value="" style="ellipse;whiteSpace=wrap;html=1;aspect=fixed;" vertex="1" parent="1">
          <mxGeometry x="1285" y="990" width="30" height="30" as="geometry" />
        </mxCell>
        <mxCell id="xV2yaK1HWpeZm-8esMcd-50" value="ShowDateTime" style="text;html=1;align=center;verticalAlign=middle;whiteSpace=wrap;rounded=0;" vertex="1" parent="1">
          <mxGeometry x="1335" y="950" width="60" height="30" as="geometry" />
        </mxCell>
        <mxCell id="xV2yaK1HWpeZm-8esMcd-52" value="Price" style="text;html=1;align=center;verticalAlign=middle;whiteSpace=wrap;rounded=0;" vertex="1" parent="1">
          <mxGeometry x="1305" y="990" width="60" height="30" as="geometry" />
        </mxCell>
        <mxCell id="xV2yaK1HWpeZm-8esMcd-56" value="" style="ellipse;whiteSpace=wrap;html=1;aspect=fixed;" vertex="1" parent="1">
          <mxGeometry x="2040" y="940" width="30" height="30" as="geometry" />
        </mxCell>
        <mxCell id="xV2yaK1HWpeZm-8esMcd-57" value="FirstName" style="text;html=1;align=center;verticalAlign=middle;whiteSpace=wrap;rounded=0;" vertex="1" parent="1">
          <mxGeometry x="2070" y="940" width="60" height="30" as="geometry" />
        </mxCell>
        <mxCell id="xV2yaK1HWpeZm-8esMcd-58" value="" style="ellipse;whiteSpace=wrap;html=1;aspect=fixed;" vertex="1" parent="1">
          <mxGeometry x="2040" y="980" width="30" height="30" as="geometry" />
        </mxCell>
        <mxCell id="xV2yaK1HWpeZm-8esMcd-59" value="LastName" style="text;html=1;align=center;verticalAlign=middle;whiteSpace=wrap;rounded=0;" vertex="1" parent="1">
          <mxGeometry x="2070" y="980" width="60" height="30" as="geometry" />
        </mxCell>
        <mxCell id="xV2yaK1HWpeZm-8esMcd-60" value="" style="ellipse;whiteSpace=wrap;html=1;aspect=fixed;" vertex="1" parent="1">
          <mxGeometry x="2040" y="1020" width="30" height="30" as="geometry" />
        </mxCell>
        <mxCell id="xV2yaK1HWpeZm-8esMcd-61" value="Email" style="text;html=1;align=center;verticalAlign=middle;whiteSpace=wrap;rounded=0;" vertex="1" parent="1">
          <mxGeometry x="2060" y="1020" width="60" height="30" as="geometry" />
        </mxCell>
        <mxCell id="xV2yaK1HWpeZm-8esMcd-62" value="" style="ellipse;whiteSpace=wrap;html=1;aspect=fixed;" vertex="1" parent="1">
          <mxGeometry x="2040" y="1060" width="30" height="30" as="geometry" />
        </mxCell>
        <mxCell id="xV2yaK1HWpeZm-8esMcd-63" value="PhoneNumber" style="text;html=1;align=center;verticalAlign=middle;whiteSpace=wrap;rounded=0;" vertex="1" parent="1">
          <mxGeometry x="2084" y="1060" width="60" height="30" as="geometry" />
        </mxCell>
        <mxCell id="xV2yaK1HWpeZm-8esMcd-68" value="" style="ellipse;whiteSpace=wrap;html=1;aspect=fixed;" vertex="1" parent="1">
          <mxGeometry x="1620" y="940.5" width="30" height="30" as="geometry" />
        </mxCell>
        <mxCell id="xV2yaK1HWpeZm-8esMcd-69" value="SeatNumber" style="text;html=1;align=center;verticalAlign=middle;whiteSpace=wrap;rounded=0;" vertex="1" parent="1">
          <mxGeometry x="1660" y="940.5" width="60" height="30" as="geometry" />
        </mxCell>
        <mxCell id="xV2yaK1HWpeZm-8esMcd-70" value="" style="ellipse;whiteSpace=wrap;html=1;aspect=fixed;" vertex="1" parent="1">
          <mxGeometry x="1620" y="980" width="30" height="30" as="geometry" />
        </mxCell>
        <mxCell id="xV2yaK1HWpeZm-8esMcd-71" value="PurchasedDateTime" style="text;html=1;align=center;verticalAlign=middle;whiteSpace=wrap;rounded=0;" vertex="1" parent="1">
          <mxGeometry x="1680" y="980" width="60" height="30" as="geometry" />
        </mxCell>
        <mxCell id="xV2yaK1HWpeZm-8esMcd-76" value="" style="ellipse;whiteSpace=wrap;html=1;aspect=fixed;" vertex="1" parent="1">
          <mxGeometry x="2040" y="1399.5" width="30" height="30" as="geometry" />
        </mxCell>
        <mxCell id="xV2yaK1HWpeZm-8esMcd-77" value="ReviewText" style="text;html=1;align=center;verticalAlign=middle;whiteSpace=wrap;rounded=0;" vertex="1" parent="1">
          <mxGeometry x="2080" y="1399.5" width="60" height="30" as="geometry" />
        </mxCell>
        <mxCell id="xV2yaK1HWpeZm-8esMcd-78" value="" style="ellipse;whiteSpace=wrap;html=1;aspect=fixed;" vertex="1" parent="1">
          <mxGeometry x="2040" y="1440" width="30" height="30" as="geometry" />
        </mxCell>
        <mxCell id="xV2yaK1HWpeZm-8esMcd-79" value="Rating" style="text;html=1;align=center;verticalAlign=middle;whiteSpace=wrap;rounded=0;" vertex="1" parent="1">
          <mxGeometry x="2070" y="1440" width="60" height="30" as="geometry" />
        </mxCell>
        <mxCell id="xV2yaK1HWpeZm-8esMcd-80" value="" style="ellipse;whiteSpace=wrap;html=1;aspect=fixed;" vertex="1" parent="1">
          <mxGeometry x="2040" y="1480" width="30" height="30" as="geometry" />
        </mxCell>
        <mxCell id="xV2yaK1HWpeZm-8esMcd-81" value="ReviewDate" style="text;html=1;align=center;verticalAlign=middle;whiteSpace=wrap;rounded=0;" vertex="1" parent="1">
          <mxGeometry x="2080" y="1480" width="60" height="30" as="geometry" />
        </mxCell>
        <mxCell id="xV2yaK1HWpeZm-8esMcd-85" value="" style="ellipse;whiteSpace=wrap;html=1;aspect=fixed;" vertex="1" parent="1">
          <mxGeometry x="179" y="939.5" width="30" height="30" as="geometry" />
        </mxCell>
        <mxCell id="xV2yaK1HWpeZm-8esMcd-86" value="FirstName" style="text;html=1;align=center;verticalAlign=middle;whiteSpace=wrap;rounded=0;" vertex="1" parent="1">
          <mxGeometry x="219" y="939.5" width="60" height="30" as="geometry" />
        </mxCell>
        <mxCell id="xV2yaK1HWpeZm-8esMcd-87" value="" style="ellipse;whiteSpace=wrap;html=1;aspect=fixed;" vertex="1" parent="1">
          <mxGeometry x="179" y="980" width="30" height="30" as="geometry" />
        </mxCell>
        <mxCell id="xV2yaK1HWpeZm-8esMcd-88" value="LastName" style="text;html=1;align=center;verticalAlign=middle;whiteSpace=wrap;rounded=0;" vertex="1" parent="1">
          <mxGeometry x="219" y="980" width="60" height="30" as="geometry" />
        </mxCell>
        <mxCell id="xV2yaK1HWpeZm-8esMcd-89" value="" style="ellipse;whiteSpace=wrap;html=1;aspect=fixed;" vertex="1" parent="1">
          <mxGeometry x="179" y="1020" width="30" height="30" as="geometry" />
        </mxCell>
        <mxCell id="xV2yaK1HWpeZm-8esMcd-90" value="Position" style="text;html=1;align=center;verticalAlign=middle;whiteSpace=wrap;rounded=0;" vertex="1" parent="1">
          <mxGeometry x="219" y="1020" width="60" height="30" as="geometry" />
        </mxCell>
        <mxCell id="xV2yaK1HWpeZm-8esMcd-91" value="" style="ellipse;whiteSpace=wrap;html=1;aspect=fixed;" vertex="1" parent="1">
          <mxGeometry x="179" y="1060" width="30" height="30" as="geometry" />
        </mxCell>
        <mxCell id="xV2yaK1HWpeZm-8esMcd-92" value="HireDate" style="text;html=1;align=center;verticalAlign=middle;whiteSpace=wrap;rounded=0;" vertex="1" parent="1">
          <mxGeometry x="219" y="1060" width="60" height="30" as="geometry" />
        </mxCell>
        <mxCell id="xV2yaK1HWpeZm-8esMcd-97" value="" style="endArrow=none;html=1;rounded=0;" edge="1" parent="1">
          <mxGeometry width="50" height="50" relative="1" as="geometry">
            <mxPoint x="1259.4099999999999" y="1475" as="sourcePoint" />
            <mxPoint x="1259.4099999999999" y="1435" as="targetPoint" />
          </mxGeometry>
        </mxCell>
        <mxCell id="xV2yaK1HWpeZm-8esMcd-98" value="" style="endArrow=none;html=1;rounded=0;" edge="1" parent="1">
          <mxGeometry width="50" height="50" relative="1" as="geometry">
            <mxPoint x="1259.4099999999999" y="1515" as="sourcePoint" />
            <mxPoint x="1259.4099999999999" y="1475" as="targetPoint" />
          </mxGeometry>
        </mxCell>
        <mxCell id="xV2yaK1HWpeZm-8esMcd-99" value="" style="endArrow=none;html=1;rounded=0;" edge="1" parent="1">
          <mxGeometry width="50" height="50" relative="1" as="geometry">
            <mxPoint x="1259.4099999999999" y="1550" as="sourcePoint" />
            <mxPoint x="1259.4099999999999" y="1510" as="targetPoint" />
          </mxGeometry>
        </mxCell>
        <mxCell id="xV2yaK1HWpeZm-8esMcd-100" value="" style="endArrow=none;html=1;rounded=0;" edge="1" parent="1">
          <mxGeometry width="50" height="50" relative="1" as="geometry">
            <mxPoint x="1259.4099999999999" y="1590" as="sourcePoint" />
            <mxPoint x="1259.4099999999999" y="1550" as="targetPoint" />
          </mxGeometry>
        </mxCell>
        <mxCell id="xV2yaK1HWpeZm-8esMcd-101" value="" style="endArrow=none;html=1;rounded=0;" edge="1" parent="1">
          <mxGeometry width="50" height="50" relative="1" as="geometry">
            <mxPoint x="2026.4099999999999" y="1100" as="sourcePoint" />
            <mxPoint x="2026.4099999999999" y="1060" as="targetPoint" />
          </mxGeometry>
        </mxCell>
        <mxCell id="xV2yaK1HWpeZm-8esMcd-102" value="" style="endArrow=none;html=1;rounded=0;" edge="1" parent="1">
          <mxGeometry width="50" height="50" relative="1" as="geometry">
            <mxPoint x="2026.4099999999999" y="1064.75" as="sourcePoint" />
            <mxPoint x="2026.4099999999999" y="1024.75" as="targetPoint" />
          </mxGeometry>
        </mxCell>
        <mxCell id="xV2yaK1HWpeZm-8esMcd-103" value="" style="endArrow=none;html=1;rounded=0;" edge="1" parent="1">
          <mxGeometry width="50" height="50" relative="1" as="geometry">
            <mxPoint x="2020" y="1434.5" as="sourcePoint" />
            <mxPoint x="2020" y="1394.5" as="targetPoint" />
          </mxGeometry>
        </mxCell>
        <mxCell id="xV2yaK1HWpeZm-8esMcd-104" value="" style="endArrow=none;html=1;rounded=0;" edge="1" parent="1">
          <mxGeometry width="50" height="50" relative="1" as="geometry">
            <mxPoint x="2020" y="1470" as="sourcePoint" />
            <mxPoint x="2020" y="1430" as="targetPoint" />
          </mxGeometry>
        </mxCell>
        <mxCell id="xV2yaK1HWpeZm-8esMcd-106" value="" style="endArrow=none;html=1;rounded=0;" edge="1" parent="1">
          <mxGeometry width="50" height="50" relative="1" as="geometry">
            <mxPoint x="159" y="1055" as="sourcePoint" />
            <mxPoint x="159" y="1015" as="targetPoint" />
          </mxGeometry>
        </mxCell>
        <mxCell id="xV2yaK1HWpeZm-8esMcd-107" value="" style="endArrow=none;html=1;rounded=0;" edge="1" parent="1">
          <mxGeometry width="50" height="50" relative="1" as="geometry">
            <mxPoint x="159" y="1095" as="sourcePoint" />
            <mxPoint x="159" y="1055" as="targetPoint" />
          </mxGeometry>
        </mxCell>
        <mxCell id="xV2yaK1HWpeZm-8esMcd-108" value="Contains" style="rhombus;whiteSpace=wrap;html=1;" vertex="1" parent="1">
          <mxGeometry x="650" y="860" width="80" height="80" as="geometry" />
        </mxCell>
        <mxCell id="xV2yaK1HWpeZm-8esMcd-111" value="" style="endArrow=none;html=1;rounded=0;" edge="1" parent="1">
          <mxGeometry width="50" height="50" relative="1" as="geometry">
            <mxPoint x="610" y="920" as="sourcePoint" />
            <mxPoint x="610" y="870" as="targetPoint" />
          </mxGeometry>
        </mxCell>
        <mxCell id="xV2yaK1HWpeZm-8esMcd-118" value="Projects" style="rhombus;whiteSpace=wrap;html=1;" vertex="1" parent="1">
          <mxGeometry x="1030" y="860" width="80" height="80" as="geometry" />
        </mxCell>
        <mxCell id="xV2yaK1HWpeZm-8esMcd-123" value="Belongs" style="rhombus;whiteSpace=wrap;html=1;" vertex="1" parent="1">
          <mxGeometry x="1205" y="1050" width="80" height="80" as="geometry" />
        </mxCell>
        <mxCell id="xV2yaK1HWpeZm-8esMcd-124" value="" style="endArrow=none;html=1;rounded=0;" edge="1" parent="1">
          <mxGeometry width="50" height="50" relative="1" as="geometry">
            <mxPoint x="969.41" y="925" as="sourcePoint" />
            <mxPoint x="969.41" y="875" as="targetPoint" />
          </mxGeometry>
        </mxCell>
        <mxCell id="xV2yaK1HWpeZm-8esMcd-128" value="" style="endArrow=none;html=1;rounded=0;" edge="1" parent="1">
          <mxGeometry width="50" height="50" relative="1" as="geometry">
            <mxPoint x="1215" y="1180" as="sourcePoint" />
            <mxPoint x="1275" y="1180" as="targetPoint" />
          </mxGeometry>
        </mxCell>
        <mxCell id="xV2yaK1HWpeZm-8esMcd-129" value="Hired" style="rhombus;whiteSpace=wrap;html=1;" vertex="1" parent="1">
          <mxGeometry x="290" y="860" width="80" height="80" as="geometry" />
        </mxCell>
        <mxCell id="xV2yaK1HWpeZm-8esMcd-132" value="" style="endArrow=none;html=1;rounded=0;" edge="1" parent="1">
          <mxGeometry width="50" height="50" relative="1" as="geometry">
            <mxPoint x="412.32" y="925" as="sourcePoint" />
            <mxPoint x="412.32" y="875" as="targetPoint" />
          </mxGeometry>
        </mxCell>
        <mxCell id="xV2yaK1HWpeZm-8esMcd-133" value="Contains" style="rhombus;whiteSpace=wrap;html=1;" vertex="1" parent="1">
          <mxGeometry x="1610" y="1310" width="80" height="80" as="geometry" />
        </mxCell>
        <mxCell id="xV2yaK1HWpeZm-8esMcd-134" value="Can do" style="rhombus;whiteSpace=wrap;html=1;" vertex="1" parent="1">
          <mxGeometry x="1970" y="1155" width="80" height="80" as="geometry" />
        </mxCell>
        <mxCell id="xV2yaK1HWpeZm-8esMcd-135" value="Bought" style="rhombus;whiteSpace=wrap;html=1;" vertex="1" parent="1">
          <mxGeometry x="1760" y="860.5" width="80" height="80" as="geometry" />
        </mxCell>
        <mxCell id="xV2yaK1HWpeZm-8esMcd-136" value="Belongs" style="rhombus;whiteSpace=wrap;html=1;" vertex="1" parent="1">
          <mxGeometry x="1385" y="860" width="80" height="80" as="geometry" />
        </mxCell>
        <mxCell id="xV2yaK1HWpeZm-8esMcd-139" value="" style="endArrow=none;html=1;rounded=0;" edge="1" parent="1">
          <mxGeometry width="50" height="50" relative="1" as="geometry">
            <mxPoint x="1344.41" y="920" as="sourcePoint" />
            <mxPoint x="1344.41" y="870" as="targetPoint" />
          </mxGeometry>
        </mxCell>
        <mxCell id="xV2yaK1HWpeZm-8esMcd-142" value="" style="endArrow=none;html=1;rounded=0;" edge="1" parent="1">
          <mxGeometry width="50" height="50" relative="1" as="geometry">
            <mxPoint x="1900" y="925" as="sourcePoint" />
            <mxPoint x="1900" y="875" as="targetPoint" />
          </mxGeometry>
        </mxCell>
        <mxCell id="xV2yaK1HWpeZm-8esMcd-145" value="" style="endArrow=none;html=1;rounded=0;" edge="1" parent="1">
          <mxGeometry width="50" height="50" relative="1" as="geometry">
            <mxPoint x="1985" y="939.3199999999999" as="sourcePoint" />
            <mxPoint x="2035" y="939.3199999999999" as="targetPoint" />
          </mxGeometry>
        </mxCell>
        <mxCell id="xV2yaK1HWpeZm-8esMcd-148" value="" style="endArrow=none;html=1;rounded=0;" edge="1" parent="1">
          <mxGeometry width="50" height="50" relative="1" as="geometry">
            <mxPoint x="1510" y="1370" as="sourcePoint" />
            <mxPoint x="1510" y="1320" as="targetPoint" />
          </mxGeometry>
        </mxCell>
      </root>
    </mxGraphModel>
  </diagram>
</mxfile>
